<svg xmlns="http://www.w3.org/2000/svg" viewBox="0 0 300 30">
  <g fill="none" stroke="#2B4FA0" stroke-width="1.1" stroke-linecap="round">
    <path d="M16 15H86"/>
    <path d="M86 15q10-8 18 0"/>
    <path d="M104 15Q118 5 132 15Q118 25 104 15Z"/>
    <path d="M132 15h11"/>
    <path d="M150 7.5l6.5 7.5-6.5 7.5-6.5-7.5z"/>
    <path d="M157 15h11"/>
    <path d="M196 15Q182 5 168 15Q182 25 196 15Z"/>
    <path d="M214 15q-10-8-18 0"/>
    <path d="M284 15H214"/>
  </g>
  <circle fill="#2B4FA0" cx="10" cy="15" r="2.3"/>
  <circle fill="#2B4FA0" cx="290" cy="15" r="2.3"/>
  <circle fill="#2B4FA0" cx="150" cy="15" r="1.7"/>
</svg>
